<?xml version="1.0" ?><!DOCTYPE svg  PUBLIC '-//W3C//DTD SVG 1.1//EN'  'http://www.w3.org/Graphics/SVG/1.1/DTD/svg11.dtd'><svg enable-background="new 0 0 48 48" id="Layer_1" version="1.1" viewBox="0 0 48 48" xml:space="preserve" xmlns="http://www.w3.org/2000/svg" xmlns:xlink="http://www.w3.org/1999/xlink"><g><polygon fill="#C07D51" points="35.7,7 27,9.3 27,11.6 27,17.2 27,22.8 24,20.8 21,22.8 17.9,20.8 14.9,22.8 14.9,17.2 14.9,12.5    3.7,15.5 12.3,47.5 44.3,38.9  "/><polygon fill="#FDD076" points="27,22.8 24,20.8 21,22.8 17.9,20.8 14.9,22.8 14.9,17.2 14.9,11.6 14.9,6.1 14.9,0.5 17.9,3.5    21,0.5 24,3.5 27,0.5 27,6.1 27,11.6 27,17.2  "/></g></svg>